<?xml version="1.0" encoding="UTF-8" standalone="no"?>
<!-- Created with Inkscape (http://www.inkscape.org/) -->

<svg
   xmlns:dc="http://purl.org/dc/elements/1.1/"
   xmlns:cc="http://creativecommons.org/ns#"
   xmlns:rdf="http://www.w3.org/1999/02/22-rdf-syntax-ns#"
   xmlns:svg="http://www.w3.org/2000/svg"
   xmlns="http://www.w3.org/2000/svg"
   xmlns:sodipodi="http://sodipodi.sourceforge.net/DTD/sodipodi-0.dtd"
   xmlns:inkscape="http://www.inkscape.org/namespaces/inkscape"
   width="545.185"
   height="71.745895"
   viewBox="0 0 545.185 71.745897"
   id="svg2"
   version="1.1"
   inkscape:version="0.91 r13725"
   sodipodi:docname="cash-conversion-cycle.svg">
  <defs
     id="defs4">
    <clipPath
       id="clipPath3350"
       clipPathUnits="userSpaceOnUse">
      <path
         style="clip-rule:evenodd"
         inkscape:connector-curvature="0"
         id="path3352"
         d="m 51.36,689.16 435.82,0 0,47.88 -435.82,0 0,-47.88 z" />
    </clipPath>
    <clipPath
       id="clipPath3362"
       clipPathUnits="userSpaceOnUse">
      <path
         style="clip-rule:evenodd"
         inkscape:connector-curvature="0"
         id="path3364"
         d="m 243.89,722.04 168.26,0 0,15 -168.26,0 0,-15 z" />
    </clipPath>
    <clipPath
       id="clipPath3374"
       clipPathUnits="userSpaceOnUse">
      <path
         style="clip-rule:evenodd"
         inkscape:connector-curvature="0"
         id="path3376"
         d="m 81.12,706.08 161.81,0 0,15 -161.81,0 0,-15 z" />
    </clipPath>
    <clipPath
       id="clipPath3386"
       clipPathUnits="userSpaceOnUse">
      <path
         style="clip-rule:evenodd"
         inkscape:connector-curvature="0"
         id="path3388"
         d="m 300.29,706.08 151.37,0 0,15 -151.37,0 0,-15 z" />
    </clipPath>
    <clipPath
       id="clipPath3398"
       clipPathUnits="userSpaceOnUse">
      <path
         style="clip-rule:evenodd"
         inkscape:connector-curvature="0"
         id="path3400"
         d="m 81.12,690.12 274.63,0 0,15 -274.63,0 0,-15 z" />
    </clipPath>
  </defs>
  <sodipodi:namedview
     id="base"
     pagecolor="#ffffff"
     bordercolor="#666666"
     borderopacity="1.0"
     inkscape:pageopacity="0.0"
     inkscape:pageshadow="2"
     inkscape:zoom="0.35"
     inkscape:cx="261.87821"
     inkscape:cy="-38.41281"
     inkscape:document-units="px"
     inkscape:current-layer="layer1"
     showgrid="false"
     fit-margin-top="10"
     fit-margin-right="2"
     units="px"
     fit-margin-left="2"
     fit-margin-bottom="10"
     inkscape:window-width="1920"
     inkscape:window-height="1017"
     inkscape:window-x="-8"
     inkscape:window-y="-8"
     inkscape:window-maximized="1" />
  <metadata
     id="metadata7">
    <rdf:RDF>
      <cc:Work
         rdf:about="">
        <dc:format>image/svg+xml</dc:format>
        <dc:type
           rdf:resource="http://purl.org/dc/dcmitype/StillImage" />
        <dc:title></dc:title>
      </cc:Work>
    </rdf:RDF>
  </metadata>
  <g
     inkscape:label="Layer 1"
     inkscape:groupmode="layer"
     id="layer1"
     transform="translate(-113.12179,-422.20347)">
    <g
       transform="matrix(1.25,0,0,-1.25,50.256789,1348.0399)"
       inkscape:label="Cash Conversion Cycle"
       id="g3344">
      <g
         id="g3346">
        <g
           clip-path="url(#clipPath3350)"
           id="g3348">
          <text
             id="text3354"
             style="font-variant:normal;font-weight:normal;font-size:11.03999996px;font-family:Calibri;-inkscape-font-specification:Calibri;writing-mode:lr-tb;fill:#000000;fill-opacity:1;fill-rule:nonzero;stroke:none"
             transform="matrix(1,0,0,-1,82.56,725.16)">
            <tspan
               id="tspan3356"
               sodipodi:role="line"
               y="0"
               x="0 6.8337598 12.12192 17.123039 21.46176 23.9568 29.730721 35.018879 40.02 45.308159 51.10416 53.64336 59.141281 63.45792 65.952957 73.261436 79.057442 82.755836 87.072479 90.804001 96.092163 101.844 107.60688 110.14608 115.88688">Days Payables Outstanding</tspan>
          </text>
        </g>
      </g>
      <g
         id="g3358">
        <g
           clip-path="url(#clipPath3362)"
           id="g3360">
          <text
             id="text3366"
             style="font-variant:normal;font-weight:normal;font-size:11.03999996px;font-family:Calibri;-inkscape-font-specification:Calibri;writing-mode:lr-tb;fill:#000000;fill-opacity:1;fill-rule:nonzero;stroke:none"
             transform="matrix(1,0,0,-1,305.81,725.16)">
            <tspan
               id="tspan3368"
               sodipodi:role="line"
               y="0"
               x="0 5.8843198 11.17248 15.48912 21.240959 23.736 29.620319 35.504639 41.267521 46.301762 51.799679 55.652641 59.96928 62.50848 68.37072 74.133598 76.628639 82.512962 87.558243 92.228157 94.767357">Cash Conversion Cycle</tspan>
          </text>
        </g>
      </g>
      <g
         id="g3370">
        <g
           clip-path="url(#clipPath3374)"
           id="g3372">
          <text
             id="text3378"
             style="font-variant:normal;font-weight:normal;font-size:11.03999996px;font-family:Calibri;-inkscape-font-specification:Calibri;writing-mode:lr-tb;fill:#000000;fill-opacity:1;fill-rule:nonzero;stroke:none"
             transform="matrix(1,0,0,-1,105.24,709.2)">
            <tspan
               id="tspan3380"
               sodipodi:role="line"
               y="0"
               x="0 6.8337598 12.12192 17.123039 21.46176 23.9568 26.73888 32.501759 37.535999 43.03392 48.829922 52.52832 58.4016 62.254559 64.793762 70.291679 74.608322 77.103363 84.411842 90.20784 93.906242 98.222878 101.9544 107.24256 112.9944 118.75728 121.29648 127.03728">Days Inventories Outstanding</tspan>
          </text>
        </g>
      </g>
      <g
         id="g3382">
        <g
           clip-path="url(#clipPath3386)"
           id="g3384">
          <text
             id="text3390"
             style="font-variant:normal;font-weight:normal;font-size:11.03999996px;font-family:Calibri;-inkscape-font-specification:Calibri;writing-mode:lr-tb;fill:#000000;fill-opacity:1;fill-rule:nonzero;stroke:none"
             transform="matrix(1,0,0,-1,339.55,709.2)">
            <tspan
               id="tspan3392"
               sodipodi:role="line"
               y="0"
               x="0 6.8337598 12.12192 17.123039 21.46176 23.9568 29.02416 34.312321 36.851521 42.349442 46.66608 49.161121 56.469601 62.265598 65.963997 70.28064 74.012161 79.300323 85.052162 90.815041 93.35424 99.095039">Days Sales Outstanding</tspan>
          </text>
        </g>
      </g>
      <g
         id="g3394">
        <g
           clip-path="url(#clipPath3398)"
           id="g3396">
          <text
             id="text3402"
             style="font-variant:normal;font-weight:normal;font-size:11.03999996px;font-family:Calibri;-inkscape-font-specification:Calibri;writing-mode:lr-tb;fill:#000000;fill-opacity:1;fill-rule:nonzero;stroke:none"
             transform="matrix(1,0,0,-1,233.81,693.24)">
            <tspan
               id="tspan3404"
               sodipodi:role="line"
               y="0"
               x="0 7.3084798 13.10448 18.6024 22.45536 27.743521 31.441919 33.981121 39.72192 44.877602 47.372639 53.256962 58.302238 62.97216 65.51136">Operating Cycle</tspan>
          </text>
        </g>
      </g>
      <path
         inkscape:connector-curvature="0"
         id="path3406"
         style="fill:#595959;fill-opacity:1;fill-rule:nonzero;stroke:none"
         d="m 76.08,728.63 -19.188,0 0,-0.5 19.188,0 0,0.5 z m -18.188,2.75 -6,-3 6,-3 0,6 z" />
      <path
         inkscape:connector-curvature="0"
         id="path3408"
         style="fill:#595959;fill-opacity:1;fill-rule:nonzero;stroke:none"
         d="m 212.78,728.56 22.5,0 0,-0.5 -22.5,0 0,0.5 z m 21.5,2.75 6,-3 -6,-3 0,6 z" />
      <path
         inkscape:connector-curvature="0"
         id="path3410"
         style="fill:#595959;fill-opacity:1;fill-rule:nonzero;stroke:none"
         d="m 297.08,728.69 -51.96,0 0,-0.5 51.96,0 0,0.5 z m -50.96,2.75 -6,-3 6,-3 0,6 z" />
      <path
         inkscape:connector-curvature="0"
         id="path3412"
         style="fill:#595959;fill-opacity:1;fill-rule:nonzero;stroke:none"
         d="m 417.92,728.63 61.64,0 0,-0.5 -61.64,0 0,0.5 z m 60.64,2.75 6,-3 -6,-3 0,6 z" />
      <path
         inkscape:connector-curvature="0"
         id="path3414"
         style="fill:#595959;fill-opacity:1;fill-rule:nonzero;stroke:none"
         d="m 101.72,712.57 -44.828,0 0,-0.5 44.828,0 0,0.5 z m -43.828,2.75 -6,-3 6,-3 0,6 z" />
      <path
         inkscape:connector-curvature="0"
         id="path3416"
         style="fill:#595959;fill-opacity:1;fill-rule:nonzero;stroke:none"
         d="m 245.85,712.65 55.96,0 0,-0.5 -55.96,0 0,0.5 z m 54.96,2.75 6,-3 -6,-3 0,6 z" />
      <path
         inkscape:connector-curvature="0"
         id="path3418"
         style="fill:#595959;fill-opacity:1;fill-rule:nonzero;stroke:none"
         d="m 332.98,712.54 -21.46,0 0,-0.5 21.46,0 0,0.5 z m -20.46,2.75 -6,-3 6,-3 0,6 z" />
      <path
         inkscape:connector-curvature="0"
         id="path3420"
         style="fill:#595959;fill-opacity:1;fill-rule:nonzero;stroke:none"
         d="m 455.98,712.71 23.86,0 0,-0.5 -23.86,0 0,0.5 z m 22.86,2.75 6,-3 -6,-3 0,6 z" />
      <path
         inkscape:connector-curvature="0"
         id="path3422"
         style="fill:#595959;fill-opacity:1;fill-rule:nonzero;stroke:none"
         d="m 222.92,696.61 -165.892,0 0,-0.5 165.892,0 0,0.5 z m -164.892,2.75 -6,-3 6,-3 0,6 z" />
      <path
         inkscape:connector-curvature="0"
         id="path3424"
         style="fill:#595959;fill-opacity:1;fill-rule:nonzero;stroke:none"
         d="m 311.74,696.75 168.1,0 0,-0.5 -168.1,0 0,0.5 z m 167.1,2.75 6,-3 -6,-3 0,6 z" />
    </g>
  </g>
</svg>
